<svg width="48" height="48" xmlns="http://www.w3.org/2000/svg">

 <g>
  <title>background</title>
  <rect fill="none" id="canvas_background" height="402" width="582" y="-1" x="-1"/>
 </g>
 <g>
  <title>Layer 1</title>
  <path transform="rotate(-179.717, 24, 24)" id="svg_1" fill="#241F20" d="m24,0c-13.255,0 -24,10.745 -24,24s10.745,24 24,24s24,-10.745 24,-24s-10.745,-24 -24,-24zm4.979,36.098l-0.002,-0.002l-0.002,0.002l-10.926,-10.928l-0.008,0.008l-1.16,-1.161l0.007,-0.007l-0.007,-0.007l0.517,-0.518l-0.005,-0.005l11.578,-11.578l0.006,0.005l0.004,-0.005l1.07,1.069l-0.004,0.004l1.064,1.064l-9.955,9.956l9.963,9.963l-2.14,2.14z"/>
 </g>
</svg>